<svg width="196" height="89" viewBox="0 0 196 89" fill="none" xmlns="http://www.w3.org/2000/svg">
<circle cx="98.0178" cy="22.1522" r="11.1141" fill="#FFA500"/>
<path d="M82.6238 37.5407L85.3354 27.4208L92.7437 34.8291L82.6238 37.5407Z" fill="#FFA500"/>
<path d="M113.407 37.5409L103.287 34.8292L110.695 27.4209L113.407 37.5409Z" fill="#FFA500"/>
<path d="M119.558 22.2012L110.484 27.4397V16.9627L119.558 22.2012Z" fill="#FFA500"/>
<path d="M113.407 6.75814L110.695 16.8781L103.287 9.46977L113.407 6.75814Z" fill="#FFA500"/>
<path d="M76.2812 22.2016L85.3545 16.9632V27.4401L76.2812 22.2016Z" fill="#FFA500"/>
<path d="M98.0669 44.6758L92.8284 34.6435H103.305L98.0669 44.6758Z" fill="#FFA500"/>
<path d="M98.0669 0.415527L103.305 9.4888H92.8285L98.0669 0.415527Z" fill="#FFA500"/>
<path d="M82.6239 6.75797L92.7438 9.4696L85.3355 16.8779L82.6239 6.75797Z" fill="#FFA500"/>
<path d="M49.2656 67.2258C47.9331 67.2258 46.6428 67.0234 45.3947 66.6186C44.1634 66.197 43.1936 65.6572 42.4852 64.9994L43.4213 63.026C44.096 63.6332 44.9562 64.1308 46.0019 64.5187C47.0645 64.8898 48.1524 65.0753 49.2656 65.0753C50.733 65.0753 51.8293 64.8308 52.5546 64.3416C53.2799 63.8356 53.6425 63.1694 53.6425 62.3429C53.6425 61.7357 53.4401 61.2466 53.0353 60.8755C52.6474 60.4876 52.1582 60.1924 51.5679 59.99C50.9944 59.7876 50.1764 59.5599 49.1138 59.3069C47.7813 58.9865 46.7019 58.666 45.8754 58.3455C45.0658 58.0251 44.3658 57.5359 43.7755 56.8781C43.202 56.2035 42.9153 55.3011 42.9153 54.171C42.9153 53.2265 43.1599 52.3747 43.649 51.6157C44.155 50.8567 44.914 50.2495 45.926 49.7941C46.938 49.3387 48.1946 49.111 49.6957 49.111C50.7414 49.111 51.7703 49.246 52.7823 49.5158C53.7943 49.7857 54.6629 50.1736 55.3882 50.6796L54.5533 52.7036C53.8112 52.2314 53.0184 51.8772 52.1751 51.641C51.3318 51.388 50.5053 51.2615 49.6957 51.2615C48.262 51.2615 47.1826 51.523 46.4573 52.0458C45.7489 52.5687 45.3947 53.2434 45.3947 54.0698C45.3947 54.677 45.5971 55.1746 46.0019 55.5625C46.4067 55.9336 46.9043 56.2288 47.4946 56.448C48.1018 56.6504 48.9198 56.8697 49.9487 57.1058C51.2812 57.4263 52.3522 57.7468 53.1618 58.0672C53.9714 58.3877 54.6629 58.8768 55.2364 59.5346C55.8267 60.1924 56.1219 61.0779 56.1219 62.1911C56.1219 63.1188 55.8689 63.9706 55.3629 64.7464C54.8569 65.5054 54.0895 66.1126 53.0606 66.568C52.0317 67.0066 50.7667 67.2258 49.2656 67.2258ZM71.5826 53.6144V67.0234H69.2803V64.9994C68.7911 65.691 68.1418 66.2307 67.3322 66.6186C66.5394 66.9897 65.6708 67.1752 64.7263 67.1752C62.9384 67.1752 61.53 66.6861 60.5012 65.7078C59.4723 64.7127 58.9579 63.2537 58.9579 61.3309V53.6144H61.3867V61.0526C61.3867 62.3514 61.6987 63.3381 62.3228 64.0127C62.9468 64.6705 63.8408 64.9994 65.0046 64.9994C66.2864 64.9994 67.2984 64.6115 68.0406 63.8356C68.7827 63.0598 69.1538 61.9634 69.1538 60.5466V53.6144H71.5826ZM82.9868 53.4879C84.6903 53.4879 86.0396 53.9855 87.0348 54.9806C88.0468 55.9589 88.5528 57.401 88.5528 59.3069V67.0234H86.124V59.5852C86.124 58.2865 85.8119 57.3082 85.1879 56.6504C84.5638 55.9926 83.6699 55.6637 82.5061 55.6637C81.1904 55.6637 80.1531 56.0517 79.3941 56.8275C78.6351 57.5865 78.2556 58.6829 78.2556 60.1165V67.0234H75.8268V53.6144H78.1544V55.6384C78.6436 54.9469 79.3014 54.4156 80.1278 54.0445C80.9712 53.6735 81.9242 53.4879 82.9868 53.4879ZM105.206 59.1551L101.967 62.4441V67.0234H99.4373V49.3134H101.967V59.2057L111.581 49.3134H114.465L106.901 57.2829L114.946 67.0234H111.986L105.206 59.1551ZM124.149 49.3134C126.443 49.3134 128.248 49.8616 129.563 50.9579C130.879 52.0543 131.537 53.5638 131.537 55.4866C131.537 57.4094 130.879 58.919 129.563 60.0153C128.248 61.1117 126.443 61.6598 124.149 61.6598H119.772V67.0234H117.242V49.3134H124.149ZM124.073 59.4587C125.675 59.4587 126.898 59.1214 127.742 58.4467C128.585 57.7552 129.007 56.7685 129.007 55.4866C129.007 54.2048 128.585 53.2265 127.742 52.5518C126.898 51.8603 125.675 51.5145 124.073 51.5145H119.772V59.4587H124.073ZM143.116 67.2258C141.328 67.2258 139.717 66.8379 138.284 66.062C136.85 65.2693 135.72 64.1814 134.893 62.7983C134.084 61.4153 133.679 59.872 133.679 58.1684C133.679 56.4649 134.084 54.9216 134.893 53.5385C135.72 52.1555 136.85 51.076 138.284 50.3001C139.717 49.5074 141.328 49.111 143.116 49.111C144.887 49.111 146.489 49.5074 147.923 50.3001C149.357 51.076 150.478 52.1555 151.288 53.5385C152.097 54.9047 152.502 56.448 152.502 58.1684C152.502 59.8888 152.097 61.4406 151.288 62.8236C150.478 64.1898 149.357 65.2693 147.923 66.062C146.489 66.8379 144.887 67.2258 143.116 67.2258ZM143.116 64.9741C144.415 64.9741 145.579 64.679 146.607 64.0886C147.653 63.4983 148.471 62.6887 149.061 61.6598C149.669 60.6141 149.972 59.4503 149.972 58.1684C149.972 56.8866 149.669 55.7312 149.061 54.7023C148.471 53.6566 147.653 52.8386 146.607 52.2482C145.579 51.6579 144.415 51.3627 143.116 51.3627C141.817 51.3627 140.637 51.6579 139.574 52.2482C138.528 52.8386 137.702 53.6566 137.095 54.7023C136.504 55.7312 136.209 56.8866 136.209 58.1684C136.209 59.4503 136.504 60.6141 137.095 61.6598C137.702 62.6887 138.528 63.4983 139.574 64.0886C140.637 64.679 141.817 64.9741 143.116 64.9741Z" fill="black"/>
<path d="M6.70533 81.8626C5.8367 81.8626 5.0524 81.6686 4.35243 81.2807C3.6609 80.8927 3.11273 80.3572 2.70793 79.6741C2.31157 78.991 2.11338 78.2236 2.11338 77.3718C2.11338 76.52 2.31157 75.7526 2.70793 75.0695C3.11273 74.3864 3.6609 73.8509 4.35243 73.463C5.0524 73.075 5.8367 72.8811 6.70533 72.8811C7.34627 72.8811 7.9366 72.9865 8.47634 73.1973C9.01607 73.3997 9.47569 73.7033 9.85519 74.1081L9.45039 74.5256C8.74199 73.8256 7.8354 73.4756 6.73063 73.4756C5.9885 73.4756 5.31383 73.6443 4.70663 73.9816C4.09943 74.3189 3.62295 74.787 3.27718 75.3858C2.93142 75.9761 2.75853 76.6381 2.75853 77.3718C2.75853 78.1055 2.93142 78.7717 3.27718 79.3705C3.62295 79.9608 4.09943 80.4247 4.70663 80.762C5.31383 81.0993 5.9885 81.268 6.73063 81.268C7.82697 81.268 8.73355 80.9138 9.45039 80.2054L9.85519 80.6229C9.47569 81.0277 9.01185 81.3355 8.46369 81.5463C7.92395 81.7571 7.33783 81.8626 6.70533 81.8626ZM13.8957 81.8499C13.2716 81.8499 12.7066 81.7065 12.2006 81.4198C11.703 81.1331 11.3109 80.7367 11.0241 80.2307C10.7374 79.7163 10.594 79.1386 10.594 78.4977C10.594 77.8567 10.7374 77.2833 11.0241 76.7773C11.3109 76.2628 11.703 75.8622 12.2006 75.5755C12.7066 75.2888 13.2716 75.1454 13.8957 75.1454C14.5197 75.1454 15.0806 75.2888 15.5781 75.5755C16.0841 75.8622 16.4805 76.2628 16.7672 76.7773C17.054 77.2833 17.1973 77.8567 17.1973 78.4977C17.1973 79.1386 17.054 79.7163 16.7672 80.2307C16.4805 80.7367 16.0841 81.1331 15.5781 81.4198C15.0806 81.7065 14.5197 81.8499 13.8957 81.8499ZM13.8957 81.2807C14.4017 81.2807 14.8529 81.1626 15.2492 80.9265C15.654 80.6903 15.9703 80.3614 16.198 79.9398C16.4341 79.5181 16.5522 79.0374 16.5522 78.4977C16.5522 77.9579 16.4341 77.4772 16.198 77.0556C15.9703 76.6339 15.654 76.305 15.2492 76.0689C14.8529 75.8327 14.4017 75.7147 13.8957 75.7147C13.3897 75.7147 12.9343 75.8327 12.5295 76.0689C12.1331 76.305 11.8169 76.6339 11.5807 77.0556C11.353 77.4772 11.2392 77.9579 11.2392 78.4977C11.2392 79.0374 11.353 79.5181 11.5807 79.9398C11.8169 80.3614 12.1331 80.6903 12.5295 80.9265C12.9343 81.1626 13.3897 81.2807 13.8957 81.2807ZM22.1956 75.1454C23.022 75.1454 23.6756 75.3858 24.1563 75.8665C24.637 76.3472 24.8774 77.0387 24.8774 77.9411V81.7993H24.2449V77.9917C24.2449 77.2495 24.0551 76.6845 23.6756 76.2966C23.3045 75.9086 22.7817 75.7147 22.107 75.7147C21.3311 75.7147 20.7197 75.9466 20.2728 76.4104C19.8258 76.8742 19.6023 77.4983 19.6023 78.2826V81.7993H18.9698V75.196H19.577V76.6255C19.8047 76.1616 20.142 75.799 20.589 75.5376C21.0444 75.2761 21.5799 75.1454 22.1956 75.1454ZM32.4685 75.196L29.483 81.7993H28.8379L25.8651 75.196H26.5356L29.1668 81.1036L31.8233 75.196H32.4685ZM39.055 78.6495H33.3751C33.392 79.1639 33.5227 79.6235 33.7672 80.0283C34.0118 80.4247 34.3407 80.7325 34.7539 80.9518C35.1756 81.171 35.6479 81.2807 36.1708 81.2807C36.6009 81.2807 36.9972 81.2048 37.3599 81.053C37.7309 80.8927 38.0387 80.6608 38.2833 80.3572L38.6502 80.7747C38.3634 81.1204 38.0008 81.3861 37.5623 81.5716C37.1322 81.7571 36.6641 81.8499 36.1581 81.8499C35.5003 81.8499 34.9142 81.7065 34.3997 81.4198C33.8853 81.1331 33.4805 80.7367 33.1853 80.2307C32.8986 79.7247 32.7552 79.147 32.7552 78.4977C32.7552 77.8567 32.8902 77.2833 33.16 76.7773C33.4383 76.2628 33.8178 75.8622 34.2985 75.5755C34.7792 75.2888 35.319 75.1454 35.9178 75.1454C36.5165 75.1454 37.052 75.2888 37.5243 75.5755C38.005 75.8538 38.3803 76.246 38.6502 76.752C38.9285 77.258 39.0676 77.8314 39.0676 78.4724L39.055 78.6495ZM35.9178 75.702C35.4539 75.702 35.0365 75.8074 34.6654 76.0183C34.2943 76.2207 33.9949 76.5116 33.7672 76.8911C33.548 77.2622 33.4215 77.6838 33.3877 78.1561H38.4478C38.4225 77.6838 38.296 77.2622 38.0683 76.8911C37.8406 76.52 37.5412 76.2291 37.1701 76.0183C36.799 75.8074 36.3816 75.702 35.9178 75.702ZM44.1109 81.3819C43.9507 81.5337 43.7483 81.6517 43.5037 81.7361C43.2676 81.812 43.0188 81.8499 42.7573 81.8499C42.1839 81.8499 41.7411 81.6939 41.4291 81.3819C41.1171 81.0614 40.961 80.6186 40.961 80.0536V75.74H39.7466V75.196H40.961V73.7539H41.5935V75.196H43.6934V75.74H41.5935V79.9904C41.5935 80.4205 41.6947 80.7494 41.8971 80.9771C42.108 81.1963 42.4158 81.306 42.8206 81.306C43.2338 81.306 43.5754 81.1837 43.8452 80.9391L44.1109 81.3819ZM45.685 75.196H46.3175V81.7993H45.685V75.196ZM46.0013 73.5895C45.8579 73.5895 45.7356 73.5431 45.6344 73.4503C45.5332 73.3491 45.4826 73.2268 45.4826 73.0835C45.4826 72.9401 45.5332 72.8178 45.6344 72.7166C45.7356 72.6154 45.8579 72.5648 46.0013 72.5648C46.1447 72.5648 46.2669 72.6154 46.3681 72.7166C46.4693 72.8094 46.5199 72.9274 46.5199 73.0708C46.5199 73.2142 46.4693 73.3365 46.3681 73.4377C46.2669 73.5389 46.1447 73.5895 46.0013 73.5895ZM52.0194 75.1454C52.8459 75.1454 53.4995 75.3858 53.9802 75.8665C54.4609 76.3472 54.7012 77.0387 54.7012 77.9411V81.7993H54.0687V77.9917C54.0687 77.2495 53.879 76.6845 53.4995 76.2966C53.1284 75.9086 52.6055 75.7147 51.9309 75.7147C51.155 75.7147 50.5436 75.9466 50.0966 76.4104C49.6497 76.8742 49.4262 77.4983 49.4262 78.2826V81.7993H48.7937V75.196H49.4009V76.6255C49.6286 76.1616 49.9659 75.799 50.4129 75.5376C50.8683 75.2761 51.4038 75.1454 52.0194 75.1454ZM63.0734 75.196V81.0909C63.0734 82.1872 62.8077 82.9969 62.2764 83.5197C61.7451 84.0426 60.9439 84.304 59.8729 84.304C59.2657 84.304 58.6922 84.2113 58.1525 84.0257C57.6128 83.8402 57.1785 83.583 56.8496 83.2541L57.1911 82.7734C57.52 83.077 57.9164 83.3131 58.3802 83.4818C58.844 83.6504 59.3374 83.7348 59.8603 83.7348C60.7373 83.7348 61.3867 83.5239 61.8084 83.1023C62.23 82.689 62.4409 82.0439 62.4409 81.1668V80.0536C62.171 80.5343 61.7957 80.9054 61.315 81.1668C60.8343 81.4282 60.2946 81.559 59.6958 81.559C59.0802 81.559 58.5194 81.424 58.0134 81.1542C57.5158 80.8759 57.1236 80.4921 56.8369 80.003C56.5502 79.5139 56.4068 78.9615 56.4068 78.3459C56.4068 77.7302 56.5502 77.1778 56.8369 76.6887C57.1236 76.1996 57.5158 75.8201 58.0134 75.5502C58.5194 75.2803 59.0802 75.1454 59.6958 75.1454C60.303 75.1454 60.8512 75.2803 61.3403 75.5502C61.8294 75.8201 62.2047 76.1996 62.4662 76.6887V75.196H63.0734ZM59.7464 80.9897C60.2608 80.9897 60.7247 80.8801 61.1379 80.6608C61.5511 80.4331 61.8716 80.1211 62.0993 79.7247C62.3354 79.3199 62.4535 78.8603 62.4535 78.3459C62.4535 77.8314 62.3354 77.376 62.0993 76.9797C61.8716 76.5833 61.5511 76.2755 61.1379 76.0562C60.7247 75.8285 60.2608 75.7147 59.7464 75.7147C59.232 75.7147 58.7681 75.8285 58.3549 76.0562C57.9501 76.2755 57.6296 76.5833 57.3935 76.9797C57.1658 77.376 57.052 77.8314 57.052 78.3459C57.052 78.8603 57.1658 79.3199 57.3935 79.7247C57.6296 80.1211 57.9501 80.4331 58.3549 80.6608C58.7681 80.8801 59.232 80.9897 59.7464 80.9897ZM71.4537 77.4351L69.4676 79.4717V81.7993H68.8225V72.9443H69.4676V78.6368L74.9957 72.9443H75.78L71.8838 76.967L76.0456 81.7993H75.2613L71.4537 77.4351ZM80.4271 75.1454C81.2535 75.1454 81.9071 75.3858 82.3878 75.8665C82.8685 76.3472 83.1089 77.0387 83.1089 77.9411V81.7993H82.4764V77.9917C82.4764 77.2495 82.2866 76.6845 81.9071 76.2966C81.5361 75.9086 81.0132 75.7147 80.3385 75.7147C79.5627 75.7147 78.9512 75.9466 78.5043 76.4104C78.0573 76.8742 77.8338 77.4983 77.8338 78.2826V81.7993H77.2013V75.196H77.8085V76.6255C78.0362 76.1616 78.3736 75.799 78.8205 75.5376C79.2759 75.2761 79.8114 75.1454 80.4271 75.1454ZM88.1161 81.8499C87.492 81.8499 86.927 81.7065 86.421 81.4198C85.9234 81.1331 85.5313 80.7367 85.2446 80.2307C84.9578 79.7163 84.8145 79.1386 84.8145 78.4977C84.8145 77.8567 84.9578 77.2833 85.2446 76.7773C85.5313 76.2628 85.9234 75.8622 86.421 75.5755C86.927 75.2888 87.492 75.1454 88.1161 75.1454C88.7402 75.1454 89.301 75.2888 89.7986 75.5755C90.3046 75.8622 90.7009 76.2628 90.9877 76.7773C91.2744 77.2833 91.4178 77.8567 91.4178 78.4977C91.4178 79.1386 91.2744 79.7163 90.9877 80.2307C90.7009 80.7367 90.3046 81.1331 89.7986 81.4198C89.301 81.7065 88.7402 81.8499 88.1161 81.8499ZM88.1161 81.2807C88.6221 81.2807 89.0733 81.1626 89.4697 80.9265C89.8745 80.6903 90.1907 80.3614 90.4184 79.9398C90.6545 79.5181 90.7726 79.0374 90.7726 78.4977C90.7726 77.9579 90.6545 77.4772 90.4184 77.0556C90.1907 76.6339 89.8745 76.305 89.4697 76.0689C89.0733 75.8327 88.6221 75.7147 88.1161 75.7147C87.6101 75.7147 87.1547 75.8327 86.7499 76.0689C86.3535 76.305 86.0373 76.6339 85.8012 77.0556C85.5735 77.4772 85.4596 77.9579 85.4596 78.4977C85.4596 79.0374 85.5735 79.5181 85.8012 79.9398C86.0373 80.3614 86.3535 80.6903 86.7499 80.9265C87.1547 81.1626 87.6101 81.2807 88.1161 81.2807ZM102.442 75.196L99.9371 81.7993H99.3426L97.1162 76.0689L94.8771 81.7993H94.2952L91.7905 75.196H92.3977L94.5988 81.0909L96.8505 75.196H97.3945L99.6335 81.0783L101.86 75.196H102.442ZM103.723 72.413H104.356V81.7993H103.723V72.413ZM112.411 78.6495H106.731C106.748 79.1639 106.878 79.6235 107.123 80.0283C107.368 80.4247 107.696 80.7325 108.11 80.9518C108.531 81.171 109.004 81.2807 109.526 81.2807C109.957 81.2807 110.353 81.2048 110.716 81.053C111.087 80.8927 111.394 80.6608 111.639 80.3572L112.006 80.7747C111.719 81.1204 111.356 81.3861 110.918 81.5716C110.488 81.7571 110.02 81.8499 109.514 81.8499C108.856 81.8499 108.27 81.7065 107.755 81.4198C107.241 81.1331 106.836 80.7367 106.541 80.2307C106.254 79.7247 106.111 79.147 106.111 78.4977C106.111 77.8567 106.246 77.2833 106.516 76.7773C106.794 76.2628 107.174 75.8622 107.654 75.5755C108.135 75.2888 108.675 75.1454 109.273 75.1454C109.872 75.1454 110.408 75.2888 110.88 75.5755C111.361 75.8538 111.736 76.246 112.006 76.752C112.284 77.258 112.423 77.8314 112.423 78.4724L112.411 78.6495ZM109.273 75.702C108.81 75.702 108.392 75.8074 108.021 76.0183C107.65 76.2207 107.351 76.5116 107.123 76.8911C106.904 77.2622 106.777 77.6838 106.743 78.1561H111.803C111.778 77.6838 111.652 77.2622 111.424 76.8911C111.196 76.52 110.897 76.2291 110.526 76.0183C110.155 75.8074 109.737 75.702 109.273 75.702ZM120.06 72.413V81.7993H119.44V80.2434C119.179 80.7578 118.812 81.1542 118.339 81.4325C117.867 81.7108 117.332 81.8499 116.733 81.8499C116.117 81.8499 115.561 81.7065 115.063 81.4198C114.566 81.1331 114.173 80.7367 113.887 80.2307C113.608 79.7247 113.469 79.147 113.469 78.4977C113.469 77.8483 113.608 77.2706 113.887 76.7646C114.173 76.2502 114.566 75.8538 115.063 75.5755C115.561 75.2888 116.117 75.1454 116.733 75.1454C117.323 75.1454 117.85 75.2846 118.314 75.5629C118.786 75.8412 119.157 76.2291 119.427 76.7267V72.413H120.06ZM116.771 81.2807C117.277 81.2807 117.728 81.1626 118.124 80.9265C118.529 80.6903 118.845 80.3614 119.073 79.9398C119.309 79.5181 119.427 79.0374 119.427 78.4977C119.427 77.9579 119.309 77.4772 119.073 77.0556C118.845 76.6339 118.529 76.305 118.124 76.0689C117.728 75.8327 117.277 75.7147 116.771 75.7147C116.265 75.7147 115.809 75.8327 115.405 76.0689C115.008 76.305 114.692 76.6339 114.456 77.0556C114.228 77.4772 114.114 77.9579 114.114 78.4977C114.114 79.0374 114.228 79.5181 114.456 79.9398C114.692 80.3614 115.008 80.6903 115.405 80.9265C115.809 81.1626 116.265 81.2807 116.771 81.2807ZM128.482 75.196V81.0909C128.482 82.1872 128.217 82.9969 127.685 83.5197C127.154 84.0426 126.353 84.304 125.282 84.304C124.675 84.304 124.101 84.2113 123.561 84.0257C123.022 83.8402 122.587 83.583 122.258 83.2541L122.6 82.7734C122.929 83.077 123.325 83.3131 123.789 83.4818C124.253 83.6504 124.746 83.7348 125.269 83.7348C126.146 83.7348 126.796 83.5239 127.217 83.1023C127.639 82.689 127.85 82.0439 127.85 81.1668V80.0536C127.58 80.5343 127.205 80.9054 126.724 81.1668C126.243 81.4282 125.703 81.559 125.105 81.559C124.489 81.559 123.928 81.424 123.422 81.1542C122.925 80.8759 122.533 80.4921 122.246 80.003C121.959 79.5139 121.816 78.9615 121.816 78.3459C121.816 77.7302 121.959 77.1778 122.246 76.6887C122.533 76.1996 122.925 75.8201 123.422 75.5502C123.928 75.2803 124.489 75.1454 125.105 75.1454C125.712 75.1454 126.26 75.2803 126.749 75.5502C127.238 75.8201 127.614 76.1996 127.875 76.6887V75.196H128.482ZM125.155 80.9897C125.67 80.9897 126.134 80.8801 126.547 80.6608C126.96 80.4331 127.281 80.1211 127.508 79.7247C127.744 79.3199 127.862 78.8603 127.862 78.3459C127.862 77.8314 127.744 77.376 127.508 76.9797C127.281 76.5833 126.96 76.2755 126.547 76.0562C126.134 75.8285 125.67 75.7147 125.155 75.7147C124.641 75.7147 124.177 75.8285 123.764 76.0562C123.359 76.2755 123.039 76.5833 122.802 76.9797C122.575 77.376 122.461 77.8314 122.461 78.3459C122.461 78.8603 122.575 79.3199 122.802 79.7247C123.039 80.1211 123.359 80.4331 123.764 80.6608C124.177 80.8801 124.641 80.9897 125.155 80.9897ZM136.548 78.6495H130.869C130.885 79.1639 131.016 79.6235 131.261 80.0283C131.505 80.4247 131.834 80.7325 132.247 80.9518C132.669 81.171 133.141 81.2807 133.664 81.2807C134.094 81.2807 134.491 81.2048 134.853 81.053C135.224 80.8927 135.532 80.6608 135.777 80.3572L136.144 80.7747C135.857 81.1204 135.494 81.3861 135.056 81.5716C134.626 81.7571 134.158 81.8499 133.652 81.8499C132.994 81.8499 132.408 81.7065 131.893 81.4198C131.379 81.1331 130.974 80.7367 130.679 80.2307C130.392 79.7247 130.249 79.147 130.249 78.4977C130.249 77.8567 130.384 77.2833 130.654 76.7773C130.932 76.2628 131.311 75.8622 131.792 75.5755C132.273 75.2888 132.812 75.1454 133.411 75.1454C134.01 75.1454 134.546 75.2888 135.018 75.5755C135.498 75.8538 135.874 76.246 136.144 76.752C136.422 77.258 136.561 77.8314 136.561 78.4724L136.548 78.6495ZM133.411 75.702C132.947 75.702 132.53 75.8074 132.159 76.0183C131.788 76.2207 131.488 76.5116 131.261 76.8911C131.041 77.2622 130.915 77.6838 130.881 78.1561H135.941C135.916 77.6838 135.789 77.2622 135.562 76.8911C135.334 76.52 135.035 76.2291 134.664 76.0183C134.293 75.8074 133.875 75.702 133.411 75.702ZM144.664 81.3819C144.503 81.5337 144.301 81.6517 144.056 81.7361C143.82 81.812 143.571 81.8499 143.31 81.8499C142.737 81.8499 142.294 81.6939 141.982 81.3819C141.67 81.0614 141.514 80.6186 141.514 80.0536V75.74H140.299V75.196H141.514V73.7539H142.146V75.196H144.246V75.74H142.146V79.9904C142.146 80.4205 142.247 80.7494 142.45 80.9771C142.661 81.1963 142.969 81.306 143.373 81.306C143.787 81.306 144.128 81.1837 144.398 80.9391L144.664 81.3819ZM148.584 81.8499C147.96 81.8499 147.395 81.7065 146.889 81.4198C146.391 81.1331 145.999 80.7367 145.712 80.2307C145.425 79.7163 145.282 79.1386 145.282 78.4977C145.282 77.8567 145.425 77.2833 145.712 76.7773C145.999 76.2628 146.391 75.8622 146.889 75.5755C147.395 75.2888 147.96 75.1454 148.584 75.1454C149.208 75.1454 149.769 75.2888 150.266 75.5755C150.772 75.8622 151.168 76.2628 151.455 76.7773C151.742 77.2833 151.885 77.8567 151.885 78.4977C151.885 79.1386 151.742 79.7163 151.455 80.2307C151.168 80.7367 150.772 81.1331 150.266 81.4198C149.769 81.7065 149.208 81.8499 148.584 81.8499ZM148.584 81.2807C149.09 81.2807 149.541 81.1626 149.937 80.9265C150.342 80.6903 150.658 80.3614 150.886 79.9398C151.122 79.5181 151.24 79.0374 151.24 78.4977C151.24 77.9579 151.122 77.4772 150.886 77.0556C150.658 76.6339 150.342 76.305 149.937 76.0689C149.541 75.8327 149.09 75.7147 148.584 75.7147C148.078 75.7147 147.622 75.8327 147.217 76.0689C146.821 76.305 146.505 76.6339 146.269 77.0556C146.041 77.4772 145.927 77.9579 145.927 78.4977C145.927 79.0374 146.041 79.5181 146.269 79.9398C146.505 80.3614 146.821 80.6903 147.217 80.9265C147.622 81.1626 148.078 81.2807 148.584 81.2807ZM160.095 72.9443C161.208 72.9443 162.081 73.21 162.713 73.7413C163.346 74.2641 163.662 74.9936 163.662 75.9297C163.662 76.8574 163.346 77.5869 162.713 78.1182C162.081 78.641 161.208 78.9025 160.095 78.9025H157.565V81.7993H156.919V72.9443H160.095ZM160.095 78.3206C161.039 78.3206 161.76 78.1139 162.258 77.7007C162.755 77.2875 163.004 76.6971 163.004 75.9297C163.004 75.1623 162.755 74.5719 162.258 74.1587C161.76 73.737 161.039 73.5262 160.095 73.5262H157.565V78.3206H160.095ZM167.99 81.8499C167.366 81.8499 166.801 81.7065 166.295 81.4198C165.797 81.1331 165.405 80.7367 165.118 80.2307C164.832 79.7163 164.688 79.1386 164.688 78.4977C164.688 77.8567 164.832 77.2833 165.118 76.7773C165.405 76.2628 165.797 75.8622 166.295 75.5755C166.801 75.2888 167.366 75.1454 167.99 75.1454C168.614 75.1454 169.175 75.2888 169.672 75.5755C170.178 75.8622 170.575 76.2628 170.862 76.7773C171.148 77.2833 171.292 77.8567 171.292 78.4977C171.292 79.1386 171.148 79.7163 170.862 80.2307C170.575 80.7367 170.178 81.1331 169.672 81.4198C169.175 81.7065 168.614 81.8499 167.99 81.8499ZM167.99 81.2807C168.496 81.2807 168.947 81.1626 169.344 80.9265C169.748 80.6903 170.065 80.3614 170.292 79.9398C170.528 79.5181 170.647 79.0374 170.647 78.4977C170.647 77.9579 170.528 77.4772 170.292 77.0556C170.065 76.6339 169.748 76.305 169.344 76.0689C168.947 75.8327 168.496 75.7147 167.99 75.7147C167.484 75.7147 167.029 75.8327 166.624 76.0689C166.227 76.305 165.911 76.6339 165.675 77.0556C165.447 77.4772 165.334 77.9579 165.334 78.4977C165.334 79.0374 165.447 79.5181 165.675 79.9398C165.911 80.3614 166.227 80.6903 166.624 80.9265C167.029 81.1626 167.484 81.2807 167.99 81.2807ZM182.316 75.196L179.811 81.7993H179.216L176.99 76.0689L174.751 81.7993H174.169L171.664 75.196H172.272L174.473 81.0909L176.724 75.196H177.268L179.507 81.0783L181.734 75.196H182.316ZM188.991 78.6495H183.311C183.328 79.1639 183.458 79.6235 183.703 80.0283C183.947 80.4247 184.276 80.7325 184.69 80.9518C185.111 81.171 185.584 81.2807 186.106 81.2807C186.536 81.2807 186.933 81.2048 187.295 81.053C187.667 80.8927 187.974 80.6608 188.219 80.3572L188.586 80.7747C188.299 81.1204 187.936 81.3861 187.498 81.5716C187.068 81.7571 186.6 81.8499 186.094 81.8499C185.436 81.8499 184.85 81.7065 184.335 81.4198C183.821 81.1331 183.416 80.7367 183.121 80.2307C182.834 79.7247 182.691 79.147 182.691 78.4977C182.691 77.8567 182.826 77.2833 183.096 76.7773C183.374 76.2628 183.753 75.8622 184.234 75.5755C184.715 75.2888 185.255 75.1454 185.853 75.1454C186.452 75.1454 186.988 75.2888 187.46 75.5755C187.941 75.8538 188.316 76.246 188.586 76.752C188.864 77.258 189.003 77.8314 189.003 78.4724L188.991 78.6495ZM185.853 75.702C185.39 75.702 184.972 75.8074 184.601 76.0183C184.23 76.2207 183.931 76.5116 183.703 76.8911C183.484 77.2622 183.357 77.6838 183.323 78.1561H188.383C188.358 77.6838 188.232 77.2622 188.004 76.8911C187.776 76.52 187.477 76.2291 187.106 76.0183C186.735 75.8074 186.317 75.702 185.853 75.702ZM191.377 76.6381C191.58 76.1574 191.896 75.7906 192.326 75.5376C192.756 75.2761 193.279 75.1454 193.895 75.1454V75.7653L193.743 75.7526C193.009 75.7526 192.436 75.9845 192.023 76.4484C191.609 76.9038 191.403 77.5405 191.403 78.3585V81.7993H190.77V75.196H191.377V76.6381Z" fill="black"/>
</svg>
