<svg width="195" height="94" viewBox="0 0 195 94" fill="none" xmlns="http://www.w3.org/2000/svg">
<ellipse cx="97.2913" cy="23.6837" rx="11.0318" ry="11.7384" fill="#FFA500"/>
<path d="M82.0114 39.9367L84.7029 29.2483L92.0563 37.0727L82.0114 39.9367Z" fill="#FFA500"/>
<path d="M112.566 39.9373L102.521 37.0734L109.874 29.249L112.566 39.9373Z" fill="#FFA500"/>
<path d="M118.671 23.7358L109.665 29.2685V18.2031L118.671 23.7358Z" fill="#FFA500"/>
<path d="M112.566 7.42563L109.874 18.114L102.521 10.2896L112.566 7.42563Z" fill="#FFA500"/>
<path d="M75.7158 23.7359L84.7218 18.2032V29.2686L75.7158 23.7359Z" fill="#FFA500"/>
<path d="M97.3397 47.4727L92.1401 36.8769H102.539L97.3397 47.4727Z" fill="#FFA500"/>
<path d="M97.3399 0.726562L102.54 10.3095H92.1403L97.3399 0.726562Z" fill="#FFA500"/>
<path d="M82.0113 7.42544L92.0562 10.2894L84.7029 18.1138L82.0113 7.42544Z" fill="#FFA500"/>
<path d="M48.9005 70.8723C47.5779 70.8723 46.2971 70.6714 45.0582 70.2696C43.8361 69.851 42.8735 69.3153 42.1703 68.6624L43.0995 66.7036C43.7691 67.3063 44.623 67.8002 45.6609 68.1853C46.7157 68.5536 47.7955 68.7377 48.9005 68.7377C50.357 68.7377 51.4452 68.495 52.1651 68.0095C52.885 67.5072 53.2449 66.8459 53.2449 66.0256C53.2449 65.4229 53.044 64.9374 52.6422 64.5691C52.2571 64.184 51.7716 63.891 51.1857 63.6901C50.6165 63.4892 49.8045 63.2632 48.7498 63.0121C47.4272 62.694 46.3557 62.3759 45.5354 62.0578C44.7318 61.7397 44.037 61.2542 43.4511 60.6013C42.8818 59.9316 42.5972 59.036 42.5972 57.9143C42.5972 56.9767 42.84 56.1313 43.3255 55.3779C43.8277 54.6245 44.5811 54.0218 45.5856 53.5698C46.5901 53.1178 47.8374 52.8918 49.3274 52.8918C50.3653 52.8918 51.3866 53.0257 52.3911 53.2936C53.3956 53.5614 54.2578 53.9465 54.9777 54.4487L54.149 56.4577C53.4123 55.989 52.6255 55.6374 51.7884 55.403C50.9513 55.1519 50.131 55.0263 49.3274 55.0263C47.9043 55.0263 46.8329 55.2858 46.113 55.8048C45.4098 56.3238 45.0582 56.9935 45.0582 57.8138C45.0582 58.4165 45.2591 58.9104 45.6609 59.2954C46.0627 59.6638 46.5566 59.9567 47.1426 60.1744C47.7453 60.3753 48.5572 60.5929 49.5785 60.8273C50.9011 61.1454 51.9642 61.4635 52.7678 61.7816C53.5714 62.0997 54.2578 62.5852 54.827 63.2381C55.4129 63.891 55.7059 64.77 55.7059 65.8749C55.7059 66.7957 55.4548 67.6412 54.9526 68.4113C54.4503 69.1646 53.6886 69.7673 52.6673 70.2194C51.6461 70.6546 50.3905 70.8723 48.9005 70.8723ZM71.052 57.3618V70.6714H68.7668V68.6624C68.2812 69.3488 67.6367 69.8845 66.8331 70.2696C66.0462 70.6379 65.184 70.8221 64.2465 70.8221C62.4719 70.8221 61.074 70.3366 60.0527 69.3655C59.0315 68.3778 58.5209 66.9296 58.5209 65.0211V57.3618H60.9317V64.7448C60.9317 66.034 61.2414 67.0133 61.8608 67.683C62.4803 68.3359 63.3676 68.6624 64.5227 68.6624C65.7951 68.6624 66.7996 68.2773 67.5362 67.5072C68.2729 66.7371 68.6412 65.6489 68.6412 64.2426V57.3618H71.052ZM82.3716 57.2362C84.0625 57.2362 85.4019 57.7301 86.3896 58.7179C87.3941 59.6889 87.8964 61.1203 87.8964 63.0121V70.6714H85.4856V63.2883C85.4856 61.9992 85.1758 61.0282 84.5564 60.3753C83.937 59.7224 83.0497 59.3959 81.8945 59.3959C80.5886 59.3959 79.559 59.781 78.8056 60.5511C78.0523 61.3044 77.6756 62.3926 77.6756 63.8157V70.6714H75.2648V57.3618H77.5751V59.3708C78.0606 58.6844 78.7136 58.157 79.5339 57.7887C80.371 57.4204 81.3169 57.2362 82.3716 57.2362ZM104.426 62.8614L101.211 66.126V70.6714H98.7002V53.0927H101.211V62.9116L110.754 53.0927H113.617L106.108 61.0031L114.094 70.6714H111.156L104.426 62.8614ZM123.229 53.0927C125.506 53.0927 127.297 53.6368 128.603 54.725C129.909 55.8132 130.562 57.3116 130.562 59.2201C130.562 61.1287 129.909 62.627 128.603 63.7152C127.297 64.8034 125.506 65.3475 123.229 65.3475H118.884V70.6714H116.373V53.0927H123.229ZM123.153 63.1628C124.744 63.1628 125.958 62.8279 126.795 62.1583C127.632 61.4719 128.05 60.4925 128.05 59.2201C128.05 57.9477 127.632 56.9767 126.795 56.3071C125.958 55.6207 124.744 55.2775 123.153 55.2775H118.884V63.1628H123.153ZM142.055 70.8723C140.28 70.8723 138.682 70.4872 137.259 69.7171C135.836 68.9303 134.714 67.8504 133.894 66.4776C133.09 65.1048 132.688 63.5729 132.688 61.882C132.688 60.1911 133.09 58.6593 133.894 57.2865C134.714 55.9136 135.836 54.8422 137.259 54.0721C138.682 53.2852 140.28 52.8918 142.055 52.8918C143.813 52.8918 145.403 53.2852 146.826 54.0721C148.249 54.8422 149.363 55.9136 150.166 57.2865C150.97 58.6425 151.372 60.1744 151.372 61.882C151.372 63.5897 150.97 65.1299 150.166 66.5027C149.363 67.8588 148.249 68.9303 146.826 69.7171C145.403 70.4872 143.813 70.8723 142.055 70.8723ZM142.055 68.6373C143.344 68.6373 144.499 68.3443 145.521 67.7583C146.559 67.1724 147.371 66.3688 147.957 65.3475C148.559 64.3096 148.861 63.1544 148.861 61.882C148.861 60.6097 148.559 59.4629 147.957 58.4416C147.371 57.4036 146.559 56.5917 145.521 56.0057C144.499 55.4198 143.344 55.1268 142.055 55.1268C140.766 55.1268 139.594 55.4198 138.539 56.0057C137.501 56.5917 136.681 57.4036 136.078 58.4416C135.492 59.4629 135.199 60.6097 135.199 61.882C135.199 63.1544 135.492 64.3096 136.078 65.3475C136.681 66.3688 137.501 67.1724 138.539 67.7583C139.594 68.3443 140.766 68.6373 142.055 68.6373Z" fill="white"/>
<path d="M6.65562 85.845C5.79343 85.845 5.01494 85.6525 4.32016 85.2674C3.63376 84.8824 3.08965 84.3508 2.68785 83.6728C2.29443 82.9947 2.09771 82.233 2.09771 81.3875C2.09771 80.5421 2.29443 79.7804 2.68785 79.1023C3.08965 78.4243 3.63376 77.8927 4.32016 77.5077C5.01494 77.1226 5.79343 76.9301 6.65562 76.9301C7.2918 76.9301 7.87776 77.0347 8.41349 77.244C8.94923 77.4449 9.40543 77.7462 9.78212 78.148L9.38032 78.5624C8.67717 77.8676 7.77731 77.5202 6.68073 77.5202C5.9441 77.5202 5.27444 77.6876 4.67174 78.0225C4.06904 78.3573 3.59609 78.8219 3.25288 79.4162C2.90968 80.0022 2.73808 80.6593 2.73808 81.3875C2.73808 82.1158 2.90968 82.7771 3.25288 83.3714C3.59609 83.9574 4.06904 84.4178 4.67174 84.7526C5.27444 85.0874 5.9441 85.2549 6.68073 85.2549C7.76894 85.2549 8.6688 84.9033 9.38032 84.2001L9.78212 84.6145C9.40543 85.0163 8.94504 85.3218 8.40094 85.5311C7.8652 85.7404 7.28343 85.845 6.65562 85.845ZM13.7927 85.8325C13.1732 85.8325 12.6124 85.6901 12.1101 85.4055C11.6162 85.1209 11.227 84.7275 10.9424 84.2253C10.6578 83.7146 10.5155 83.1412 10.5155 82.5051C10.5155 81.8689 10.6578 81.2997 10.9424 80.7974C11.227 80.2868 11.6162 79.8892 12.1101 79.6046C12.6124 79.32 13.1732 79.1777 13.7927 79.1777C14.4121 79.1777 14.9688 79.32 15.4626 79.6046C15.9649 79.8892 16.3583 80.2868 16.6429 80.7974C16.9275 81.2997 17.0698 81.8689 17.0698 82.5051C17.0698 83.1412 16.9275 83.7146 16.6429 84.2253C16.3583 84.7275 15.9649 85.1209 15.4626 85.4055C14.9688 85.6901 14.4121 85.8325 13.7927 85.8325ZM13.7927 85.2674C14.2949 85.2674 14.7427 85.1502 15.1362 84.9158C15.538 84.6815 15.8519 84.355 16.0779 83.9365C16.3123 83.5179 16.4295 83.0408 16.4295 82.5051C16.4295 81.9693 16.3123 81.4922 16.0779 81.0736C15.8519 80.6551 15.538 80.3286 15.1362 80.0943C14.7427 79.8599 14.2949 79.7427 13.7927 79.7427C13.2904 79.7427 12.8384 79.8599 12.4366 80.0943C12.0432 80.3286 11.7293 80.6551 11.4949 81.0736C11.2689 81.4922 11.1559 81.9693 11.1559 82.5051C11.1559 83.0408 11.2689 83.5179 11.4949 83.9365C11.7293 84.355 12.0432 84.6815 12.4366 84.9158C12.8384 85.1502 13.2904 85.2674 13.7927 85.2674ZM22.031 79.1777C22.8514 79.1777 23.5001 79.4162 23.9772 79.8934C24.4544 80.3705 24.6929 81.0569 24.6929 81.9526V85.7822H24.0651V82.0028C24.0651 81.2662 23.8768 80.7053 23.5001 80.3203C23.1318 79.9352 22.6128 79.7427 21.9431 79.7427C21.173 79.7427 20.5661 79.9729 20.1225 80.4333C19.6788 80.8937 19.457 81.5131 19.457 82.2916V85.7822H18.8292V79.2279H19.4319V80.6467C19.6579 80.1863 19.9927 79.8264 20.4364 79.5669C20.8884 79.3074 21.4199 79.1777 22.031 79.1777ZM32.2277 79.2279L29.2645 85.7822H28.6241L25.6734 79.2279H26.3389L28.9506 85.0916L31.5874 79.2279H32.2277ZM38.7654 82.6557H33.1277C33.1444 83.1663 33.2742 83.6226 33.5169 84.0244C33.7597 84.4178 34.0861 84.7233 34.4963 84.941C34.9148 85.1586 35.3836 85.2674 35.9026 85.2674C36.3295 85.2674 36.7229 85.1921 37.0829 85.0414C37.4512 84.8824 37.7567 84.6522 37.9995 84.3508L38.3636 84.7652C38.079 85.1084 37.7191 85.3721 37.2838 85.5562C36.8569 85.7404 36.3923 85.8325 35.89 85.8325C35.2371 85.8325 34.6553 85.6901 34.1447 85.4055C33.6341 85.1209 33.2323 84.7275 32.9393 84.2253C32.6547 83.723 32.5124 83.1496 32.5124 82.5051C32.5124 81.8689 32.6464 81.2997 32.9142 80.7974C33.1905 80.2868 33.5671 79.8892 34.0443 79.6046C34.5214 79.32 35.0571 79.1777 35.6515 79.1777C36.2458 79.1777 36.7773 79.32 37.2461 79.6046C37.7233 79.8808 38.0958 80.27 38.3636 80.7723C38.6399 81.2745 38.778 81.8438 38.778 82.4799L38.7654 82.6557ZM35.6515 79.7301C35.1911 79.7301 34.7767 79.8348 34.4084 80.044C34.0401 80.2449 33.7429 80.5337 33.5169 80.9104C33.2993 81.2787 33.1737 81.6973 33.1402 82.166H38.1627C38.1376 81.6973 38.012 81.2787 37.786 80.9104C37.56 80.5421 37.2629 80.2533 36.8945 80.044C36.5262 79.8348 36.1119 79.7301 35.6515 79.7301ZM43.7839 85.3679C43.6248 85.5185 43.4239 85.6357 43.1812 85.7194C42.9468 85.7948 42.6999 85.8325 42.4404 85.8325C41.8712 85.8325 41.4317 85.6776 41.122 85.3679C40.8122 85.0498 40.6574 84.6103 40.6574 84.0495V79.7678H39.452V79.2279H40.6574V77.7965H41.2852V79.2279H43.3695V79.7678H41.2852V83.9867C41.2852 84.4136 41.3856 84.7401 41.5865 84.9661C41.7958 85.1837 42.1014 85.2925 42.5031 85.2925C42.9133 85.2925 43.2523 85.1712 43.5202 84.9284L43.7839 85.3679ZM45.3464 79.2279H45.9742V85.7822H45.3464V79.2279ZM45.6603 77.6332C45.518 77.6332 45.3966 77.5872 45.2961 77.4951C45.1957 77.3947 45.1455 77.2733 45.1455 77.131C45.1455 76.9887 45.1957 76.8673 45.2961 76.7669C45.3966 76.6664 45.518 76.6162 45.6603 76.6162C45.8026 76.6162 45.9239 76.6664 46.0244 76.7669C46.1248 76.8589 46.1751 76.9761 46.1751 77.1184C46.1751 77.2607 46.1248 77.3821 46.0244 77.4826C45.9239 77.583 45.8026 77.6332 45.6603 77.6332ZM51.6338 79.1777C52.4541 79.1777 53.1029 79.4162 53.58 79.8934C54.0571 80.3705 54.2957 81.0569 54.2957 81.9526V85.7822H53.6679V82.0028C53.6679 81.2662 53.4795 80.7053 53.1029 80.3203C52.7345 79.9352 52.2156 79.7427 51.5459 79.7427C50.7758 79.7427 50.1689 79.9729 49.7252 80.4333C49.2816 80.8937 49.0598 81.5131 49.0598 82.2916V85.7822H48.4319V79.2279H49.0346V80.6467C49.2607 80.1863 49.5955 79.8264 50.0391 79.5669C50.4912 79.3074 51.0227 79.1777 51.6338 79.1777ZM62.6058 79.2279V85.0791C62.6058 86.1673 62.3421 86.9709 61.8147 87.4899C61.2874 88.0089 60.4921 88.2684 59.429 88.2684C58.8263 88.2684 58.2571 88.1763 57.7214 87.9921C57.1857 87.808 56.7546 87.5527 56.4281 87.2262L56.7671 86.7491C57.0936 87.0504 57.487 87.2848 57.9474 87.4522C58.4078 87.6196 58.8975 87.7033 59.4165 87.7033C60.287 87.7033 60.9316 87.4941 61.3501 87.0755C61.7687 86.6653 61.978 86.025 61.978 85.1544V84.0495C61.7101 84.5266 61.3376 84.8949 60.8604 85.1544C60.3833 85.4139 59.8476 85.5437 59.2533 85.5437C58.6422 85.5437 58.0855 85.4097 57.5833 85.1419C57.0894 84.8656 56.7002 84.4848 56.4155 83.9992C56.1309 83.5137 55.9886 82.9654 55.9886 82.3544C55.9886 81.7433 56.1309 81.195 56.4155 80.7095C56.7002 80.224 57.0894 79.8473 57.5833 79.5795C58.0855 79.3116 58.6422 79.1777 59.2533 79.1777C59.856 79.1777 60.4001 79.3116 60.8856 79.5795C61.3711 79.8473 61.7436 80.224 62.0031 80.7095V79.2279H62.6058ZM59.3035 84.9786C59.8141 84.9786 60.2745 84.8698 60.6847 84.6522C61.0948 84.4262 61.4129 84.1164 61.6389 83.723C61.8733 83.3212 61.9905 82.865 61.9905 82.3544C61.9905 81.8438 61.8733 81.3917 61.6389 80.9983C61.4129 80.6049 61.0948 80.2993 60.6847 80.0817C60.2745 79.8557 59.8141 79.7427 59.3035 79.7427C58.7929 79.7427 58.3325 79.8557 57.9223 80.0817C57.5205 80.2993 57.2024 80.6049 56.968 80.9983C56.742 81.3917 56.629 81.8438 56.629 82.3544C56.629 82.865 56.742 83.3212 56.968 83.723C57.2024 84.1164 57.5205 84.4262 57.9223 84.6522C58.3325 84.8698 58.7929 84.9786 59.3035 84.9786ZM70.924 81.4503L68.9526 83.4719V85.7822H68.3123V76.9929H68.9526V82.6432L74.4397 76.9929H75.2182L71.3509 80.9857L75.4819 85.7822H74.7034L70.924 81.4503ZM79.8308 79.1777C80.6512 79.1777 81.2999 79.4162 81.7771 79.8934C82.2542 80.3705 82.4928 81.0569 82.4928 81.9526V85.7822H81.8649V82.0028C81.8649 81.2662 81.6766 80.7053 81.2999 80.3203C80.9316 79.9352 80.4126 79.7427 79.7429 79.7427C78.9728 79.7427 78.3659 79.9729 77.9223 80.4333C77.4786 80.8937 77.2568 81.5131 77.2568 82.2916V85.7822H76.629V79.2279H77.2317V80.6467C77.4577 80.1863 77.7925 79.8264 78.2362 79.5669C78.6882 79.3074 79.2198 79.1777 79.8308 79.1777ZM87.4629 85.8325C86.8434 85.8325 86.2826 85.6901 85.7803 85.4055C85.2865 85.1209 84.8972 84.7275 84.6126 84.2253C84.328 83.7146 84.1857 83.1412 84.1857 82.5051C84.1857 81.8689 84.328 81.2997 84.6126 80.7974C84.8972 80.2868 85.2865 79.8892 85.7803 79.6046C86.2826 79.32 86.8434 79.1777 87.4629 79.1777C88.0823 79.1777 88.639 79.32 89.1328 79.6046C89.6351 79.8892 90.0285 80.2868 90.3131 80.7974C90.5977 81.2997 90.74 81.8689 90.74 82.5051C90.74 83.1412 90.5977 83.7146 90.3131 84.2253C90.0285 84.7275 89.6351 85.1209 89.1328 85.4055C88.639 85.6901 88.0823 85.8325 87.4629 85.8325ZM87.4629 85.2674C87.9651 85.2674 88.413 85.1502 88.8064 84.9158C89.2082 84.6815 89.5221 84.355 89.7481 83.9365C89.9825 83.5179 90.0997 83.0408 90.0997 82.5051C90.0997 81.9693 89.9825 81.4922 89.7481 81.0736C89.5221 80.6551 89.2082 80.3286 88.8064 80.0943C88.413 79.8599 87.9651 79.7427 87.4629 79.7427C86.9606 79.7427 86.5086 79.8599 86.1068 80.0943C85.7134 80.3286 85.3995 80.6551 85.1651 81.0736C84.9391 81.4922 84.8261 81.9693 84.8261 82.5051C84.8261 83.0408 84.9391 83.5179 85.1651 83.9365C85.3995 84.355 85.7134 84.6815 86.1068 84.9158C86.5086 85.1502 86.9606 85.2674 87.4629 85.2674ZM101.682 79.2279L99.1963 85.7822H98.6061L96.3962 80.0943L94.1738 85.7822H93.5962L91.1101 79.2279H91.7128L93.8975 85.0791L96.1325 79.2279H96.6725L98.8949 85.0665L101.105 79.2279H101.682ZM102.954 76.4655H103.582V85.7822H102.954V76.4655ZM111.577 82.6557H105.94C105.956 83.1663 106.086 83.6226 106.329 84.0244C106.572 84.4178 106.898 84.7233 107.308 84.941C107.727 85.1586 108.195 85.2674 108.714 85.2674C109.141 85.2674 109.535 85.1921 109.895 85.0414C110.263 84.8824 110.569 84.6522 110.811 84.3508L111.175 84.7652C110.891 85.1084 110.531 85.3721 110.096 85.5562C109.669 85.7404 109.204 85.8325 108.702 85.8325C108.049 85.8325 107.467 85.6901 106.957 85.4055C106.446 85.1209 106.044 84.7275 105.751 84.2253C105.467 83.723 105.324 83.1496 105.324 82.5051C105.324 81.8689 105.458 81.2997 105.726 80.7974C106.002 80.2868 106.379 79.8892 106.856 79.6046C107.333 79.32 107.869 79.1777 108.463 79.1777C109.058 79.1777 109.589 79.32 110.058 79.6046C110.535 79.8808 110.908 80.27 111.175 80.7723C111.452 81.2745 111.59 81.8438 111.59 82.4799L111.577 82.6557ZM108.463 79.7301C108.003 79.7301 107.589 79.8348 107.22 80.044C106.852 80.2449 106.555 80.5337 106.329 80.9104C106.111 81.2787 105.986 81.6973 105.952 82.166H110.975C110.949 81.6973 110.824 81.2787 110.598 80.9104C110.372 80.5421 110.075 80.2533 109.706 80.044C109.338 79.8348 108.924 79.7301 108.463 79.7301ZM119.17 76.4655V85.7822H118.555V84.2378C118.295 84.7484 117.931 85.1419 117.462 85.4181C116.993 85.6943 116.462 85.8325 115.868 85.8325C115.256 85.8325 114.704 85.6901 114.21 85.4055C113.716 85.1209 113.327 84.7275 113.042 84.2253C112.766 83.723 112.628 83.1496 112.628 82.5051C112.628 81.8605 112.766 81.2871 113.042 80.7848C113.327 80.2742 113.716 79.8808 114.21 79.6046C114.704 79.32 115.256 79.1777 115.868 79.1777C116.453 79.1777 116.977 79.3158 117.437 79.592C117.906 79.8682 118.274 80.2533 118.542 80.7472V76.4655H119.17ZM115.905 85.2674C116.407 85.2674 116.855 85.1502 117.249 84.9158C117.65 84.6815 117.964 84.355 118.19 83.9365C118.425 83.5179 118.542 83.0408 118.542 82.5051C118.542 81.9693 118.425 81.4922 118.19 81.0736C117.964 80.6551 117.65 80.3286 117.249 80.0943C116.855 79.8599 116.407 79.7427 115.905 79.7427C115.403 79.7427 114.951 79.8599 114.549 80.0943C114.156 80.3286 113.842 80.6551 113.607 81.0736C113.381 81.4922 113.268 81.9693 113.268 82.5051C113.268 83.0408 113.381 83.5179 113.607 83.9365C113.842 84.355 114.156 84.6815 114.549 84.9158C114.951 85.1502 115.403 85.2674 115.905 85.2674ZM127.53 79.2279V85.0791C127.53 86.1673 127.266 86.9709 126.739 87.4899C126.211 88.0089 125.416 88.2684 124.353 88.2684C123.75 88.2684 123.181 88.1763 122.645 87.9921C122.11 87.808 121.679 87.5527 121.352 87.2262L121.691 86.7491C122.018 87.0504 122.411 87.2848 122.871 87.4522C123.332 87.6196 123.822 87.7033 124.34 87.7033C125.211 87.7033 125.856 87.4941 126.274 87.0755C126.693 86.6653 126.902 86.025 126.902 85.1544V84.0495C126.634 84.5266 126.262 84.8949 125.784 85.1544C125.307 85.4139 124.772 85.5437 124.177 85.5437C123.566 85.5437 123.01 85.4097 122.507 85.1419C122.013 84.8656 121.624 84.4848 121.34 83.9992C121.055 83.5137 120.913 82.9654 120.913 82.3544C120.913 81.7433 121.055 81.195 121.34 80.7095C121.624 80.224 122.013 79.8473 122.507 79.5795C123.01 79.3116 123.566 79.1777 124.177 79.1777C124.78 79.1777 125.324 79.3116 125.81 79.5795C126.295 79.8473 126.668 80.224 126.927 80.7095V79.2279H127.53ZM124.227 84.9786C124.738 84.9786 125.199 84.8698 125.609 84.6522C126.019 84.4262 126.337 84.1164 126.563 83.723C126.797 83.3212 126.915 82.865 126.915 82.3544C126.915 81.8438 126.797 81.3917 126.563 80.9983C126.337 80.6049 126.019 80.2993 125.609 80.0817C125.199 79.8557 124.738 79.7427 124.227 79.7427C123.717 79.7427 123.256 79.8557 122.846 80.0817C122.445 80.2993 122.126 80.6049 121.892 80.9983C121.666 81.3917 121.553 81.8438 121.553 82.3544C121.553 82.865 121.666 83.3212 121.892 83.723C122.126 84.1164 122.445 84.4262 122.846 84.6522C123.256 84.8698 123.717 84.9786 124.227 84.9786ZM135.536 82.6557H129.898C129.915 83.1663 130.045 83.6226 130.288 84.0244C130.53 84.4178 130.857 84.7233 131.267 84.941C131.686 85.1586 132.154 85.2674 132.673 85.2674C133.1 85.2674 133.494 85.1921 133.854 85.0414C134.222 84.8824 134.527 84.6522 134.77 84.3508L135.134 84.7652C134.85 85.1084 134.49 85.3721 134.054 85.5562C133.628 85.7404 133.163 85.8325 132.661 85.8325C132.008 85.8325 131.426 85.6901 130.915 85.4055C130.405 85.1209 130.003 84.7275 129.71 84.2253C129.425 83.723 129.283 83.1496 129.283 82.5051C129.283 81.8689 129.417 81.2997 129.685 80.7974C129.961 80.2868 130.338 79.8892 130.815 79.6046C131.292 79.32 131.828 79.1777 132.422 79.1777C133.017 79.1777 133.548 79.32 134.017 79.6046C134.494 79.8808 134.866 80.27 135.134 80.7723C135.411 81.2745 135.549 81.8438 135.549 82.4799L135.536 82.6557ZM132.422 79.7301C131.962 79.7301 131.547 79.8348 131.179 80.044C130.811 80.2449 130.514 80.5337 130.288 80.9104C130.07 81.2787 129.944 81.6973 129.911 82.166H134.933C134.908 81.6973 134.783 81.2787 134.557 80.9104C134.331 80.5421 134.034 80.2533 133.665 80.044C133.297 79.8348 132.883 79.7301 132.422 79.7301ZM143.591 85.3679C143.432 85.5185 143.231 85.6357 142.988 85.7194C142.754 85.7948 142.507 85.8325 142.248 85.8325C141.678 85.8325 141.239 85.6776 140.929 85.3679C140.62 85.0498 140.465 84.6103 140.465 84.0495V79.7678H139.259V79.2279H140.465V77.7965H141.092V79.2279H143.177V79.7678H141.092V83.9867C141.092 84.4136 141.193 84.7401 141.394 84.9661C141.603 85.1837 141.909 85.2925 142.31 85.2925C142.721 85.2925 143.06 85.1712 143.327 84.9284L143.591 85.3679ZM147.482 85.8325C146.863 85.8325 146.302 85.6901 145.8 85.4055C145.306 85.1209 144.916 84.7275 144.632 84.2253C144.347 83.7146 144.205 83.1412 144.205 82.5051C144.205 81.8689 144.347 81.2997 144.632 80.7974C144.916 80.2868 145.306 79.8892 145.8 79.6046C146.302 79.32 146.863 79.1777 147.482 79.1777C148.102 79.1777 148.658 79.32 149.152 79.6046C149.654 79.8892 150.048 80.2868 150.332 80.7974C150.617 81.2997 150.759 81.8689 150.759 82.5051C150.759 83.1412 150.617 83.7146 150.332 84.2253C150.048 84.7275 149.654 85.1209 149.152 85.4055C148.658 85.6901 148.102 85.8325 147.482 85.8325ZM147.482 85.2674C147.984 85.2674 148.432 85.1502 148.826 84.9158C149.227 84.6815 149.541 84.355 149.767 83.9365C150.002 83.5179 150.119 83.0408 150.119 82.5051C150.119 81.9693 150.002 81.4922 149.767 81.0736C149.541 80.6551 149.227 80.3286 148.826 80.0943C148.432 79.8599 147.984 79.7427 147.482 79.7427C146.98 79.7427 146.528 79.8599 146.126 80.0943C145.733 80.3286 145.419 80.6551 145.184 81.0736C144.958 81.4922 144.845 81.9693 144.845 82.5051C144.845 83.0408 144.958 83.5179 145.184 83.9365C145.419 84.355 145.733 84.6815 146.126 84.9158C146.528 85.1502 146.98 85.2674 147.482 85.2674ZM158.908 76.9929C160.013 76.9929 160.879 77.2566 161.507 77.7839C162.135 78.3029 162.449 79.027 162.449 79.9561C162.449 80.8769 162.135 81.601 161.507 82.1284C160.879 82.6474 160.013 82.9069 158.908 82.9069H156.396V85.7822H155.756V76.9929H158.908ZM158.908 82.3293C159.845 82.3293 160.561 82.1242 161.055 81.714C161.549 81.3038 161.796 80.7179 161.796 79.9561C161.796 79.1944 161.549 78.6084 161.055 78.1983C160.561 77.7797 159.845 77.5705 158.908 77.5705H156.396V82.3293H158.908ZM166.745 85.8325C166.125 85.8325 165.564 85.6901 165.062 85.4055C164.568 85.1209 164.179 84.7275 163.894 84.2253C163.61 83.7146 163.467 83.1412 163.467 82.5051C163.467 81.8689 163.61 81.2997 163.894 80.7974C164.179 80.2868 164.568 79.8892 165.062 79.6046C165.564 79.32 166.125 79.1777 166.745 79.1777C167.364 79.1777 167.921 79.32 168.415 79.6046C168.917 79.8892 169.31 80.2868 169.595 80.7974C169.88 81.2997 170.022 81.8689 170.022 82.5051C170.022 83.1412 169.88 83.7146 169.595 84.2253C169.31 84.7275 168.917 85.1209 168.415 85.4055C167.921 85.6901 167.364 85.8325 166.745 85.8325ZM166.745 85.2674C167.247 85.2674 167.695 85.1502 168.088 84.9158C168.49 84.6815 168.804 84.355 169.03 83.9365C169.264 83.5179 169.381 83.0408 169.381 82.5051C169.381 81.9693 169.264 81.4922 169.03 81.0736C168.804 80.6551 168.49 80.3286 168.088 80.0943C167.695 79.8599 167.247 79.7427 166.745 79.7427C166.242 79.7427 165.79 79.8599 165.389 80.0943C164.995 80.3286 164.681 80.6551 164.447 81.0736C164.221 81.4922 164.108 81.9693 164.108 82.5051C164.108 83.0408 164.221 83.5179 164.447 83.9365C164.681 84.355 164.995 84.6815 165.389 84.9158C165.79 85.1502 166.242 85.2674 166.745 85.2674ZM180.964 79.2279L178.478 85.7822H177.888L175.678 80.0943L173.456 85.7822H172.878L170.392 79.2279H170.995L173.179 85.0791L175.414 79.2279H175.954L178.177 85.0665L180.387 79.2279H180.964ZM187.59 82.6557H181.952C181.969 83.1663 182.098 83.6226 182.341 84.0244C182.584 84.4178 182.91 84.7233 183.32 84.941C183.739 85.1586 184.208 85.2674 184.727 85.2674C185.154 85.2674 185.547 85.1921 185.907 85.0414C186.275 84.8824 186.581 84.6522 186.824 84.3508L187.188 84.7652C186.903 85.1084 186.543 85.3721 186.108 85.5562C185.681 85.7404 185.216 85.8325 184.714 85.8325C184.061 85.8325 183.479 85.6901 182.969 85.4055C182.458 85.1209 182.056 84.7275 181.763 84.2253C181.479 83.723 181.337 83.1496 181.337 82.5051C181.337 81.8689 181.47 81.2997 181.738 80.7974C182.015 80.2868 182.391 79.8892 182.868 79.6046C183.346 79.32 183.881 79.1777 184.476 79.1777C185.07 79.1777 185.601 79.32 186.07 79.6046C186.547 79.8808 186.92 80.27 187.188 80.7723C187.464 81.2745 187.602 81.8438 187.602 82.4799L187.59 82.6557ZM184.476 79.7301C184.015 79.7301 183.601 79.8348 183.233 80.044C182.864 80.2449 182.567 80.5337 182.341 80.9104C182.123 81.2787 181.998 81.6973 181.964 82.166H186.987C186.962 81.6973 186.836 81.2787 186.61 80.9104C186.384 80.5421 186.087 80.2533 185.719 80.044C185.35 79.8348 184.936 79.7301 184.476 79.7301ZM189.959 80.6593C190.16 80.1822 190.473 79.818 190.9 79.5669C191.327 79.3074 191.846 79.1777 192.457 79.1777V79.7929L192.307 79.7804C191.578 79.7804 191.009 80.0105 190.599 80.4709C190.189 80.923 189.984 81.555 189.984 82.3669V85.7822H189.356V79.2279H189.959V80.6593Z" fill="white"/>
</svg>
