<svg width="63" height="53" viewBox="0 0 63 53" fill="none" xmlns="http://www.w3.org/2000/svg">
<g filter="url(#filter0_d)">
<path d="M41.5159 22.816C39.4039 21.952 37.7719 20.56 36.6199 18.64C35.3719 16.816 34.7479 14.608 34.7479 12.016C34.7479 8.56 35.8519 5.728 38.0599 3.52C40.2679 1.312 43.0039 0.208002 46.2679 0.208002C49.7239 0.208002 52.5559 1.312 54.7639 3.52C56.9719 5.728 58.0759 8.56 58.0759 12.016C58.0759 13.744 57.8839 15.424 57.4999 17.056C57.0199 18.688 56.1559 21.136 54.9079 24.4L47.2759 44.848H35.7559L41.5159 22.816ZM10.9879 22.816C8.87593 21.952 7.24393 20.56 6.09193 18.64C4.84393 16.816 4.21993 14.608 4.21993 12.016C4.21993 8.56 5.32393 5.728 7.53193 3.52C9.73993 1.312 12.4759 0.208002 15.7399 0.208002C19.1959 0.208002 22.0279 1.312 24.2359 3.52C26.4439 5.728 27.5479 8.56 27.5479 12.016C27.5479 13.744 27.3559 15.424 26.9719 17.056C26.4919 18.688 25.6279 21.136 24.3799 24.4L16.7479 44.848L5.22794 44.848L10.9879 22.816Z" fill="#FFA500"/>
</g>
<defs>
<filter id="filter0_d" x="0.219971" y="0.208008" width="61.856" height="52.64" filterUnits="userSpaceOnUse" color-interpolation-filters="sRGB">
<feFlood flood-opacity="0" result="BackgroundImageFix"/>
<feColorMatrix in="SourceAlpha" type="matrix" values="0 0 0 0 0 0 0 0 0 0 0 0 0 0 0 0 0 0 127 0"/>
<feOffset dy="4"/>
<feGaussianBlur stdDeviation="2"/>
<feColorMatrix type="matrix" values="0 0 0 0 0 0 0 0 0 0 0 0 0 0 0 0 0 0 0.4 0"/>
<feBlend mode="normal" in2="BackgroundImageFix" result="effect1_dropShadow"/>
<feBlend mode="normal" in="SourceGraphic" in2="effect1_dropShadow" result="shape"/>
</filter>
</defs>
</svg>
