<svg width="332" height="150" viewBox="0 0 332 150" fill="none" xmlns="http://www.w3.org/2000/svg">
<circle cx="166.178" cy="36.8517" r="18.8428" fill="#FFA500"/>
<path d="M140.079 62.9418L144.677 45.7846L157.237 58.3445L140.079 62.9418Z" fill="#FFA500"/>
<path d="M192.268 62.9418L175.111 58.3445L187.671 45.7846L192.268 62.9418Z" fill="#FFA500"/>
<path d="M202.697 36.9352L187.314 45.8164V28.054L202.697 36.9352Z" fill="#FFA500"/>
<path d="M192.268 10.7532L187.671 27.9104L175.111 15.3505L192.268 10.7532Z" fill="#FFA500"/>
<path d="M129.326 36.9353L144.709 28.0541V45.8165L129.326 36.9353Z" fill="#FFA500"/>
<path d="M166.261 75.0377L157.38 58.0291H175.143L166.261 75.0377Z" fill="#FFA500"/>
<path d="M166.262 -3.05176e-05L175.143 15.3827H157.381L166.262 -3.05176e-05Z" fill="#FFA500"/>
<path d="M140.079 10.7532L157.237 15.3504L144.677 27.9104L140.079 10.7532Z" fill="#FFA500"/>
<path d="M83.5244 112.885C81.2653 112.885 79.0778 112.541 76.9617 111.855C74.8742 111.14 73.23 110.225 72.029 109.11L73.616 105.764C74.7598 106.794 76.2182 107.637 77.9911 108.295C79.7926 108.924 81.6371 109.239 83.5244 109.239C86.0122 109.239 87.8709 108.824 89.1005 107.995C90.3301 107.137 90.9449 106.007 90.9449 104.606C90.9449 103.577 90.6018 102.747 89.9155 102.118C89.2578 101.461 88.4285 100.96 87.4277 100.617C86.4554 100.274 85.0685 99.8879 83.267 99.459C81.008 98.9156 79.1778 98.3723 77.7767 97.829C76.4041 97.2857 75.2174 96.4564 74.2165 95.3412C73.2443 94.1974 72.7581 92.6675 72.7581 90.7516C72.7581 89.1503 73.1728 87.7062 74.002 86.4194C74.8599 85.1326 76.1467 84.1031 77.8624 83.3311C79.5782 82.559 81.7085 82.1729 84.2535 82.1729C86.0265 82.1729 87.7708 82.4017 89.4865 82.8592C91.2023 83.3168 92.6749 83.9745 93.9045 84.8323L92.4891 88.2638C91.2309 87.4631 89.8869 86.8626 88.4571 86.4623C87.0273 86.0333 85.6261 85.8189 84.2535 85.8189C81.8229 85.8189 79.9928 86.2621 78.7632 87.1486C77.5622 88.035 76.9617 89.1788 76.9617 90.58C76.9617 91.6095 77.3048 92.453 77.9911 93.1107C78.6774 93.7398 79.521 94.2403 80.5218 94.612C81.5513 94.9552 82.9382 95.3269 84.6825 95.7272C86.9415 96.2705 88.7573 96.8139 90.1299 97.3572C91.5025 97.9005 92.6749 98.7298 93.6472 99.845C94.648 100.96 95.1485 102.461 95.1485 104.349C95.1485 105.922 94.7195 107.366 93.8617 108.681C93.0038 109.968 91.7027 110.997 89.9584 111.769C88.214 112.513 86.0694 112.885 83.5244 112.885ZM121.36 89.808V112.541H117.457V109.11C116.628 110.282 115.527 111.197 114.154 111.855C112.81 112.484 111.338 112.799 109.736 112.799C106.705 112.799 104.317 111.97 102.573 110.311C100.829 108.624 99.9565 106.15 99.9565 102.89V89.808H104.074V102.419C104.074 104.62 104.603 106.293 105.661 107.437C106.719 108.552 108.235 109.11 110.208 109.11C112.381 109.11 114.097 108.452 115.355 107.137C116.613 105.821 117.243 103.963 117.243 101.561V89.808H121.36ZM140.695 89.5935C143.583 89.5935 145.871 90.4371 147.558 92.1242C149.273 93.7827 150.131 96.2277 150.131 99.459V112.541H146.014V99.9308C146.014 97.7289 145.485 96.0704 144.427 94.9552C143.368 93.8399 141.853 93.2823 139.88 93.2823C137.649 93.2823 135.891 93.94 134.604 95.2554C133.317 96.5422 132.674 98.4009 132.674 100.832V112.541H128.556V89.808H132.502V93.2394C133.331 92.067 134.447 91.1662 135.848 90.5371C137.278 89.908 138.893 89.5935 140.695 89.5935ZM178.364 99.2016L172.874 104.778V112.541H168.585V82.5161H172.874V99.2874L189.174 82.5161H194.063L181.238 96.0275L194.878 112.541H189.86L178.364 99.2016ZM210.481 82.5161C214.37 82.5161 217.43 83.4454 219.66 85.3042C221.891 87.1629 223.006 89.7222 223.006 92.9821C223.006 96.242 221.891 98.8013 219.66 100.66C217.43 102.519 214.37 103.448 210.481 103.448H203.06V112.541H198.771V82.5161H210.481ZM210.352 99.7163C213.069 99.7163 215.142 99.1444 216.572 98.0006C218.002 96.8282 218.716 95.1553 218.716 92.9821C218.716 90.8088 218.002 89.1503 216.572 88.0064C215.142 86.834 213.069 86.2478 210.352 86.2478H203.06V99.7163H210.352ZM242.637 112.885C239.606 112.885 236.875 112.227 234.445 110.911C232.014 109.567 230.098 107.723 228.697 105.378C227.324 103.033 226.638 100.417 226.638 97.5287C226.638 94.6406 227.324 92.0241 228.697 89.6793C230.098 87.3344 232.014 85.5043 234.445 84.1889C236.875 82.8449 239.606 82.1729 242.637 82.1729C245.64 82.1729 248.356 82.8449 250.787 84.1889C253.217 85.5043 255.119 87.3344 256.492 89.6793C257.864 91.9955 258.551 94.612 258.551 97.5287C258.551 100.445 257.864 103.076 256.492 105.421C255.119 107.737 253.217 109.567 250.787 110.911C248.356 112.227 245.64 112.885 242.637 112.885ZM242.637 109.067C244.839 109.067 246.812 108.567 248.556 107.566C250.329 106.565 251.716 105.192 252.717 103.448C253.746 101.675 254.261 99.702 254.261 97.5287C254.261 95.3555 253.746 93.3967 252.717 91.6524C251.716 89.8794 250.329 88.4926 248.556 87.4917C246.812 86.4909 244.839 85.9904 242.637 85.9904C240.435 85.9904 238.434 86.4909 236.632 87.4917C234.859 88.4926 233.458 89.8794 232.429 91.6524C231.428 93.3967 230.927 95.3555 230.927 97.5287C230.927 99.702 231.428 101.675 232.429 103.448C233.458 105.192 234.859 106.565 236.632 107.566C238.434 108.567 240.435 109.067 242.637 109.067Z" fill="black"/>
<path d="M11.3682 137.958C9.89549 137.958 8.5658 137.629 7.37908 136.972C6.20667 136.314 5.27731 135.406 4.59102 134.248C3.91902 133.09 3.58302 131.789 3.58302 130.344C3.58302 128.9 3.91902 127.599 4.59102 126.441C5.27731 125.283 6.20667 124.375 7.37908 123.717C8.5658 123.06 9.89549 122.731 11.3682 122.731C12.4548 122.731 13.4556 122.91 14.3707 123.267C15.2858 123.61 16.065 124.125 16.7084 124.811L16.0221 125.519C14.8211 124.332 13.2841 123.739 11.4111 123.739C10.1529 123.739 9.00903 124.025 7.97959 124.597C6.95015 125.169 6.14233 125.962 5.55612 126.977C4.96991 127.978 4.6768 129.101 4.6768 130.344C4.6768 131.588 4.96991 132.718 5.55612 133.733C6.14233 134.734 6.95015 135.52 7.97959 136.092C9.00903 136.664 10.1529 136.95 11.4111 136.95C13.2698 136.95 14.8068 136.35 16.0221 135.149L16.7084 135.856C16.065 136.543 15.2786 137.064 14.3492 137.422C13.4342 137.779 12.4405 137.958 11.3682 137.958ZM23.5586 137.937C22.5005 137.937 21.5426 137.694 20.6847 137.207C19.8412 136.721 19.1763 136.049 18.6902 135.191C18.2041 134.319 17.961 133.34 17.961 132.253C17.961 131.167 18.2041 130.194 18.6902 129.337C19.1763 128.464 19.8412 127.785 20.6847 127.299C21.5426 126.813 22.5005 126.57 23.5586 126.57C24.6166 126.57 25.5674 126.813 26.411 127.299C27.2688 127.785 27.9408 128.464 28.427 129.337C28.9131 130.194 29.1562 131.167 29.1562 132.253C29.1562 133.34 28.9131 134.319 28.427 135.191C27.9408 136.049 27.2688 136.721 26.411 137.207C25.5674 137.694 24.6166 137.937 23.5586 137.937ZM23.5586 136.972C24.4164 136.972 25.1814 136.771 25.8534 136.371C26.5397 135.971 27.0758 135.413 27.4619 134.698C27.8622 133.983 28.0624 133.168 28.0624 132.253C28.0624 131.338 27.8622 130.523 27.4619 129.808C27.0758 129.093 26.5397 128.536 25.8534 128.135C25.1814 127.735 24.4164 127.535 23.5586 127.535C22.7007 127.535 21.9286 127.735 21.2423 128.135C20.5703 128.536 20.0342 129.093 19.6338 129.808C19.2478 130.523 19.0548 131.338 19.0548 132.253C19.0548 133.168 19.2478 133.983 19.6338 134.698C20.0342 135.413 20.5703 135.971 21.2423 136.371C21.9286 136.771 22.7007 136.972 23.5586 136.972ZM37.6301 126.57C39.0313 126.57 40.1394 126.977 40.9543 127.792C41.7693 128.607 42.1768 129.78 42.1768 131.31V137.851H41.1045V131.395C41.1045 130.137 40.7828 129.179 40.1394 128.522C39.5103 127.864 38.6238 127.535 37.48 127.535C36.1646 127.535 35.128 127.928 34.3702 128.715C33.6124 129.501 33.2335 130.559 33.2335 131.889V137.851H32.1612V126.656H33.1906V129.079C33.5767 128.293 34.1486 127.678 34.9064 127.235C35.6785 126.792 36.5864 126.57 37.6301 126.57ZM55.0466 126.656L49.9852 137.851H48.8914L43.8515 126.656H44.9881L49.4491 136.671L53.9528 126.656H55.0466ZM66.2133 132.511H56.5837C56.6123 133.383 56.834 134.162 57.2486 134.848C57.6632 135.52 58.2208 136.042 58.9214 136.414C59.6363 136.786 60.437 136.972 61.3235 136.972C62.0526 136.972 62.7246 136.843 63.3394 136.585C63.9685 136.314 64.4904 135.921 64.9051 135.406L65.527 136.114C65.0409 136.7 64.4261 137.15 63.6826 137.465C62.9534 137.779 62.1599 137.937 61.302 137.937C60.1868 137.937 59.1931 137.694 58.3209 137.207C57.4488 136.721 56.7625 136.049 56.262 135.191C55.7759 134.334 55.5329 133.354 55.5329 132.253C55.5329 131.167 55.7616 130.194 56.2192 129.337C56.691 128.464 57.3344 127.785 58.1494 127.299C58.9643 126.813 59.8794 126.57 60.8945 126.57C61.9097 126.57 62.8176 126.813 63.6183 127.299C64.4332 127.771 65.0695 128.436 65.527 129.294C65.9988 130.151 66.2347 131.124 66.2347 132.21L66.2133 132.511ZM60.8945 127.514C60.1081 127.514 59.4004 127.692 58.7713 128.05C58.1422 128.393 57.6346 128.886 57.2486 129.53C56.8769 130.159 56.6624 130.874 56.6052 131.674H65.1839C65.141 130.874 64.9265 130.159 64.5405 129.53C64.1544 128.9 63.6468 128.407 63.0177 128.05C62.3886 127.692 61.6809 127.514 60.8945 127.514ZM74.7851 137.143C74.5134 137.4 74.1703 137.601 73.7557 137.744C73.3553 137.872 72.9335 137.937 72.4903 137.937C71.5181 137.937 70.7674 137.672 70.2384 137.143C69.7094 136.6 69.4449 135.849 69.4449 134.891V127.578H67.386V126.656H69.4449V124.211H70.5172V126.656H74.0774V127.578H70.5172V134.784C70.5172 135.513 70.6888 136.071 71.0319 136.457C71.3894 136.829 71.9112 137.014 72.5975 137.014C73.2981 137.014 73.8772 136.807 74.3347 136.392L74.7851 137.143ZM77.4539 126.656H78.5262V137.851H77.4539V126.656ZM77.99 123.932C77.747 123.932 77.5397 123.853 77.3681 123.696C77.1965 123.524 77.1107 123.317 77.1107 123.074C77.1107 122.831 77.1965 122.624 77.3681 122.452C77.5397 122.281 77.747 122.195 77.99 122.195C78.2331 122.195 78.4404 122.281 78.612 122.452C78.7836 122.609 78.8693 122.81 78.8693 123.053C78.8693 123.296 78.7836 123.503 78.612 123.675C78.4404 123.846 78.2331 123.932 77.99 123.932ZM88.1931 126.57C89.5943 126.57 90.7024 126.977 91.5173 127.792C92.3323 128.607 92.7398 129.78 92.7398 131.31V137.851H91.6675V131.395C91.6675 130.137 91.3458 129.179 90.7024 128.522C90.0733 127.864 89.1868 127.535 88.043 127.535C86.7276 127.535 85.691 127.928 84.9332 128.715C84.1754 129.501 83.7965 130.559 83.7965 131.889V137.851H82.7242V126.656H83.7537V129.079C84.1397 128.293 84.7116 127.678 85.4694 127.235C86.2415 126.792 87.1494 126.57 88.1931 126.57ZM106.934 126.656V136.65C106.934 138.509 106.483 139.881 105.583 140.768C104.682 141.654 103.324 142.097 101.508 142.097C100.478 142.097 99.5061 141.94 98.5911 141.625C97.676 141.311 96.9397 140.875 96.382 140.317L96.9611 139.502C97.5187 140.017 98.1907 140.417 98.9771 140.703C99.7635 140.989 100.6 141.132 101.486 141.132C102.973 141.132 104.074 140.775 104.789 140.06C105.504 139.359 105.861 138.265 105.861 136.778V134.891C105.404 135.706 104.768 136.335 103.953 136.778C103.138 137.222 102.223 137.443 101.208 137.443C100.164 137.443 99.213 137.215 98.3551 136.757C97.5116 136.285 96.8467 135.635 96.3606 134.805C95.8745 133.976 95.6314 133.04 95.6314 131.996C95.6314 130.952 95.8745 130.016 96.3606 129.186C96.8467 128.357 97.5116 127.714 98.3551 127.256C99.213 126.799 100.164 126.57 101.208 126.57C102.237 126.57 103.166 126.799 103.996 127.256C104.825 127.714 105.461 128.357 105.904 129.186V126.656H106.934ZM101.293 136.478C102.165 136.478 102.952 136.292 103.652 135.921C104.353 135.535 104.896 135.006 105.282 134.334C105.683 133.647 105.883 132.868 105.883 131.996C105.883 131.124 105.683 130.352 105.282 129.68C104.896 129.008 104.353 128.486 103.652 128.114C102.952 127.728 102.165 127.535 101.293 127.535C100.421 127.535 99.6348 127.728 98.9342 128.114C98.2479 128.486 97.7046 129.008 97.3043 129.68C96.9182 130.352 96.7252 131.124 96.7252 131.996C96.7252 132.868 96.9182 133.647 97.3043 134.334C97.7046 135.006 98.2479 135.535 98.9342 135.921C99.6348 136.292 100.421 136.478 101.293 136.478ZM121.142 130.452L117.775 133.905V137.851H116.681V122.838H117.775V132.489L127.147 122.838H128.476L121.871 129.658L128.927 137.851H127.597L121.142 130.452ZM136.355 126.57C137.756 126.57 138.864 126.977 139.679 127.792C140.494 128.607 140.902 129.78 140.902 131.31V137.851H139.829V131.395C139.829 130.137 139.508 129.179 138.864 128.522C138.235 127.864 137.349 127.535 136.205 127.535C134.89 127.535 133.853 127.928 133.095 128.715C132.337 129.501 131.959 130.559 131.959 131.889V137.851H130.886V126.656H131.916V129.079C132.302 128.293 132.874 127.678 133.631 127.235C134.403 126.792 135.311 126.57 136.355 126.57ZM149.391 137.937C148.333 137.937 147.375 137.694 146.517 137.207C145.674 136.721 145.009 136.049 144.523 135.191C144.036 134.319 143.793 133.34 143.793 132.253C143.793 131.167 144.036 130.194 144.523 129.337C145.009 128.464 145.674 127.785 146.517 127.299C147.375 126.813 148.333 126.57 149.391 126.57C150.449 126.57 151.4 126.813 152.243 127.299C153.101 127.785 153.773 128.464 154.259 129.337C154.746 130.194 154.989 131.167 154.989 132.253C154.989 133.34 154.746 134.319 154.259 135.191C153.773 136.049 153.101 136.721 152.243 137.207C151.4 137.694 150.449 137.937 149.391 137.937ZM149.391 136.972C150.249 136.972 151.014 136.771 151.686 136.371C152.372 135.971 152.908 135.413 153.294 134.698C153.695 133.983 153.895 133.168 153.895 132.253C153.895 131.338 153.695 130.523 153.294 129.808C152.908 129.093 152.372 128.536 151.686 128.135C151.014 127.735 150.249 127.535 149.391 127.535C148.533 127.535 147.761 127.735 147.075 128.135C146.403 128.536 145.867 129.093 145.466 129.808C145.08 130.523 144.887 131.338 144.887 132.253C144.887 133.168 145.08 133.983 145.466 134.698C145.867 135.413 146.403 135.971 147.075 136.371C147.761 136.771 148.533 136.972 149.391 136.972ZM173.679 126.656L169.432 137.851H168.424L164.65 128.135L160.854 137.851H159.867L155.621 126.656H156.65L160.382 136.65L164.199 126.656H165.121L168.917 136.628L172.692 126.656H173.679ZM175.851 121.937H176.924V137.851H175.851V121.937ZM190.58 132.511H180.95C180.979 133.383 181.2 134.162 181.615 134.848C182.03 135.52 182.587 136.042 183.288 136.414C184.003 136.786 184.803 136.972 185.69 136.972C186.419 136.972 187.091 136.843 187.706 136.585C188.335 136.314 188.857 135.921 189.271 135.406L189.893 136.114C189.407 136.7 188.792 137.15 188.049 137.465C187.32 137.779 186.526 137.937 185.668 137.937C184.553 137.937 183.559 137.694 182.687 137.207C181.815 136.721 181.129 136.049 180.628 135.191C180.142 134.334 179.899 133.354 179.899 132.253C179.899 131.167 180.128 130.194 180.585 129.337C181.057 128.464 181.701 127.785 182.516 127.299C183.331 126.813 184.246 126.57 185.261 126.57C186.276 126.57 187.184 126.813 187.985 127.299C188.8 127.771 189.436 128.436 189.893 129.294C190.365 130.151 190.601 131.124 190.601 132.21L190.58 132.511ZM185.261 127.514C184.474 127.514 183.767 127.692 183.138 128.05C182.509 128.393 182.001 128.886 181.615 129.53C181.243 130.159 181.029 130.874 180.972 131.674H189.55C189.507 130.874 189.293 130.159 188.907 129.53C188.521 128.9 188.013 128.407 187.384 128.05C186.755 127.692 186.047 127.514 185.261 127.514ZM203.548 121.937V137.851H202.497V135.213C202.054 136.085 201.432 136.757 200.631 137.229C199.831 137.701 198.923 137.937 197.908 137.937C196.864 137.937 195.92 137.694 195.077 137.207C194.233 136.721 193.568 136.049 193.082 135.191C192.61 134.334 192.374 133.354 192.374 132.253C192.374 131.152 192.61 130.173 193.082 129.315C193.568 128.443 194.233 127.771 195.077 127.299C195.92 126.813 196.864 126.57 197.908 126.57C198.908 126.57 199.802 126.806 200.588 127.278C201.389 127.749 202.018 128.407 202.476 129.251V121.937H203.548ZM197.972 136.972C198.83 136.972 199.595 136.771 200.267 136.371C200.953 135.971 201.489 135.413 201.875 134.698C202.275 133.983 202.476 133.168 202.476 132.253C202.476 131.338 202.275 130.523 201.875 129.808C201.489 129.093 200.953 128.536 200.267 128.135C199.595 127.735 198.83 127.535 197.972 127.535C197.114 127.535 196.342 127.735 195.656 128.135C194.984 128.536 194.447 129.093 194.047 129.808C193.661 130.523 193.468 131.338 193.468 132.253C193.468 133.168 193.661 133.983 194.047 134.698C194.447 135.413 194.984 135.971 195.656 136.371C196.342 136.771 197.114 136.972 197.972 136.972ZM217.827 126.656V136.65C217.827 138.509 217.377 139.881 216.476 140.768C215.575 141.654 214.217 142.097 212.401 142.097C211.372 142.097 210.4 141.94 209.485 141.625C208.569 141.311 207.833 140.875 207.276 140.317L207.855 139.502C208.412 140.017 209.084 140.417 209.871 140.703C210.657 140.989 211.493 141.132 212.38 141.132C213.867 141.132 214.968 140.775 215.683 140.06C216.397 139.359 216.755 138.265 216.755 136.778V134.891C216.297 135.706 215.661 136.335 214.846 136.778C214.031 137.222 213.116 137.443 212.101 137.443C211.057 137.443 210.106 137.215 209.249 136.757C208.405 136.285 207.74 135.635 207.254 134.805C206.768 133.976 206.525 133.04 206.525 131.996C206.525 130.952 206.768 130.016 207.254 129.186C207.74 128.357 208.405 127.714 209.249 127.256C210.106 126.799 211.057 126.57 212.101 126.57C213.13 126.57 214.06 126.799 214.889 127.256C215.718 127.714 216.355 128.357 216.798 129.186V126.656H217.827ZM212.187 136.478C213.059 136.478 213.845 136.292 214.546 135.921C215.247 135.535 215.79 135.006 216.176 134.334C216.576 133.647 216.776 132.868 216.776 131.996C216.776 131.124 216.576 130.352 216.176 129.68C215.79 129.008 215.247 128.486 214.546 128.114C213.845 127.728 213.059 127.535 212.187 127.535C211.315 127.535 210.528 127.728 209.828 128.114C209.141 128.486 208.598 129.008 208.198 129.68C207.812 130.352 207.619 131.124 207.619 131.996C207.619 132.868 207.812 133.647 208.198 134.334C208.598 135.006 209.141 135.535 209.828 135.921C210.528 136.292 211.315 136.478 212.187 136.478ZM231.503 132.511H221.873C221.902 133.383 222.123 134.162 222.538 134.848C222.952 135.52 223.51 136.042 224.211 136.414C224.926 136.786 225.726 136.972 226.613 136.972C227.342 136.972 228.014 136.843 228.629 136.585C229.258 136.314 229.78 135.921 230.194 135.406L230.816 136.114C230.33 136.7 229.715 137.15 228.972 137.465C228.243 137.779 227.449 137.937 226.591 137.937C225.476 137.937 224.482 137.694 223.61 137.207C222.738 136.721 222.052 136.049 221.551 135.191C221.065 134.334 220.822 133.354 220.822 132.253C220.822 131.167 221.051 130.194 221.508 129.337C221.98 128.464 222.624 127.785 223.439 127.299C224.254 126.813 225.169 126.57 226.184 126.57C227.199 126.57 228.107 126.813 228.907 127.299C229.722 127.771 230.359 128.436 230.816 129.294C231.288 130.151 231.524 131.124 231.524 132.21L231.503 132.511ZM226.184 127.514C225.397 127.514 224.69 127.692 224.061 128.05C223.431 128.393 222.924 128.886 222.538 129.53C222.166 130.159 221.952 130.874 221.894 131.674H230.473C230.43 130.874 230.216 130.159 229.83 129.53C229.444 128.9 228.936 128.407 228.307 128.05C227.678 127.692 226.97 127.514 226.184 127.514ZM245.261 137.143C244.989 137.4 244.646 137.601 244.231 137.744C243.831 137.872 243.409 137.937 242.966 137.937C241.994 137.937 241.243 137.672 240.714 137.143C240.185 136.6 239.921 135.849 239.921 134.891V127.578H237.862V126.656H239.921V124.211H240.993V126.656H244.553V127.578H240.993V134.784C240.993 135.513 241.165 136.071 241.508 136.457C241.865 136.829 242.387 137.014 243.073 137.014C243.774 137.014 244.353 136.807 244.811 136.392L245.261 137.143ZM251.907 137.937C250.849 137.937 249.891 137.694 249.033 137.207C248.189 136.721 247.525 136.049 247.038 135.191C246.552 134.319 246.309 133.34 246.309 132.253C246.309 131.167 246.552 130.194 247.038 129.337C247.525 128.464 248.189 127.785 249.033 127.299C249.891 126.813 250.849 126.57 251.907 126.57C252.965 126.57 253.916 126.813 254.759 127.299C255.617 127.785 256.289 128.464 256.775 129.337C257.261 130.194 257.504 131.167 257.504 132.253C257.504 133.34 257.261 134.319 256.775 135.191C256.289 136.049 255.617 136.721 254.759 137.207C253.916 137.694 252.965 137.937 251.907 137.937ZM251.907 136.972C252.765 136.972 253.53 136.771 254.202 136.371C254.888 135.971 255.424 135.413 255.81 134.698C256.21 133.983 256.411 133.168 256.411 132.253C256.411 131.338 256.21 130.523 255.81 129.808C255.424 129.093 254.888 128.536 254.202 128.135C253.53 127.735 252.765 127.535 251.907 127.535C251.049 127.535 250.277 127.735 249.591 128.135C248.919 128.536 248.382 129.093 247.982 129.808C247.596 130.523 247.403 131.338 247.403 132.253C247.403 133.168 247.596 133.983 247.982 134.698C248.382 135.413 248.919 135.971 249.591 136.371C250.277 136.771 251.049 136.972 251.907 136.972ZM271.422 122.838C273.31 122.838 274.789 123.289 275.862 124.189C276.934 125.076 277.47 126.313 277.47 127.9C277.47 129.472 276.934 130.709 275.862 131.61C274.789 132.496 273.31 132.94 271.422 132.94H267.133V137.851H266.039V122.838H271.422ZM271.422 131.953C273.024 131.953 274.246 131.603 275.09 130.902C275.933 130.202 276.355 129.201 276.355 127.9C276.355 126.598 275.933 125.598 275.09 124.897C274.246 124.182 273.024 123.825 271.422 123.825H267.133V131.953H271.422ZM284.808 137.937C283.75 137.937 282.792 137.694 281.934 137.207C281.091 136.721 280.426 136.049 279.94 135.191C279.454 134.319 279.211 133.34 279.211 132.253C279.211 131.167 279.454 130.194 279.94 129.337C280.426 128.464 281.091 127.785 281.934 127.299C282.792 126.813 283.75 126.57 284.808 126.57C285.866 126.57 286.817 126.813 287.661 127.299C288.518 127.785 289.19 128.464 289.677 129.337C290.163 130.194 290.406 131.167 290.406 132.253C290.406 133.34 290.163 134.319 289.677 135.191C289.19 136.049 288.518 136.721 287.661 137.207C286.817 137.694 285.866 137.937 284.808 137.937ZM284.808 136.972C285.666 136.972 286.431 136.771 287.103 136.371C287.789 135.971 288.325 135.413 288.711 134.698C289.112 133.983 289.312 133.168 289.312 132.253C289.312 131.338 289.112 130.523 288.711 129.808C288.325 129.093 287.789 128.536 287.103 128.135C286.431 127.735 285.666 127.535 284.808 127.535C283.95 127.535 283.178 127.735 282.492 128.135C281.82 128.536 281.284 129.093 280.883 129.808C280.497 130.523 280.304 131.338 280.304 132.253C280.304 133.168 280.497 133.983 280.883 134.698C281.284 135.413 281.82 135.971 282.492 136.371C283.178 136.771 283.95 136.972 284.808 136.972ZM309.096 126.656L304.849 137.851H303.841L300.067 128.135L296.271 137.851H295.284L291.038 126.656H292.067L295.799 136.65L299.616 126.656H300.539L304.335 136.628L308.109 126.656H309.096ZM320.412 132.511H310.783C310.811 133.383 311.033 134.162 311.448 134.848C311.862 135.52 312.42 136.042 313.12 136.414C313.835 136.786 314.636 136.972 315.523 136.972C316.252 136.972 316.924 136.843 317.539 136.585C318.168 136.314 318.689 135.921 319.104 135.406L319.726 136.114C319.24 136.7 318.625 137.15 317.882 137.465C317.152 137.779 316.359 137.937 315.501 137.937C314.386 137.937 313.392 137.694 312.52 137.207C311.648 136.721 310.962 136.049 310.461 135.191C309.975 134.334 309.732 133.354 309.732 132.253C309.732 131.167 309.961 130.194 310.418 129.337C310.89 128.464 311.533 127.785 312.348 127.299C313.163 126.813 314.078 126.57 315.094 126.57C316.109 126.57 317.017 126.813 317.817 127.299C318.632 127.771 319.269 128.436 319.726 129.294C320.198 130.151 320.434 131.124 320.434 132.21L320.412 132.511ZM315.094 127.514C314.307 127.514 313.599 127.692 312.97 128.05C312.341 128.393 311.834 128.886 311.448 129.53C311.076 130.159 310.861 130.874 310.804 131.674H319.383C319.34 130.874 319.126 130.159 318.74 129.53C318.353 128.9 317.846 128.407 317.217 128.05C316.588 127.692 315.88 127.514 315.094 127.514ZM324.459 129.101C324.802 128.286 325.338 127.664 326.067 127.235C326.797 126.792 327.683 126.57 328.727 126.57V127.621L328.469 127.599C327.226 127.599 326.253 127.993 325.553 128.779C324.852 129.551 324.502 130.63 324.502 132.017V137.851H323.429V126.656H324.459V129.101Z" fill="black"/>
</svg>
